# Blender v2.78 (sub 4) OBJ File: ''
# www.blender.org
o Plane
v -0.500000 -0.494421 0.500000
v 0.500000 -0.494421 0.500000
v -0.500000 -0.494421 -0.500000
v 0.500000 -0.494421 -0.500000
v -0.500000 -0.494421 -0.166667
v -0.500000 -0.494421 0.166667
v 0.500000 -0.494421 0.166667
v 0.500000 -0.494421 -0.166667
v -0.166667 -0.494421 0.500000
v 0.166667 -0.494421 0.500000
v 0.166667 -0.494421 -0.500000
v -0.166667 -0.494421 -0.500000
v 0.166667 -0.200000 0.166667
v -0.166667 -0.200000 0.166667
v 0.166667 -0.200000 -0.166667
v -0.166667 -0.200000 -0.166667
vt 0.623273 0.376726
vt 0.668097 0.009936
vt 0.990064 0.009937
vt 0.990063 0.331904
vt 0.000100 0.342159
vt 0.000101 0.000100
vt 0.342160 0.000101
vt 0.384652 0.384653
vt 0.331899 0.990064
vt 0.376723 0.623274
vt 0.615344 0.615347
vt 0.657835 0.999899
vt 0.009931 0.990063
vt 0.009933 0.668096
vt 0.999895 0.657841
vt 0.999894 0.999900
vn 0.3746 0.8482 -0.3746
vn 0.3746 0.8482 0.3746
vn 0.6620 0.7495 0.0000
vn -0.6620 0.7495 0.0000
vn 0.0000 1.0000 0.0000
vn -0.3746 0.8482 0.3746
vn 0.0000 0.7495 0.6620
vn -0.3746 0.8482 -0.3746
vn 0.0000 0.7495 -0.6620
g Plane_Plane_None
s off
f 15/1/1 8/2/1 4/3/1 11/4/1
f 10/5/2 2/6/2 7/7/2 13/8/2
f 13/8/3 7/7/3 8/2/3 15/1/3
f 6/9/4 14/10/4 16/11/4 5/12/4
f 14/10/5 13/8/5 15/1/5 16/11/5
f 1/13/6 9/14/6 14/10/6 6/9/6
f 9/14/7 10/5/7 13/8/7 14/10/7
f 5/12/8 16/11/8 12/15/8 3/16/8
f 16/11/9 15/1/9 11/4/9 12/15/9
