# Blender v2.76 (sub 2) OBJ File: ''
# www.blender.org
o Apple_Plane.002
v 0.562500 0.750000 -0.050000
v 0.500000 0.750000 -0.050000
v 0.500000 0.750000 0.050000
v 0.562500 0.750000 0.050000
v 0.125000 0.687500 -0.050000
v 0.125000 0.625000 -0.050000
v 0.125000 0.625000 0.050000
v 0.125000 0.687500 0.050000
v 0.125000 0.562500 -0.050000
v 0.125000 0.562500 0.050000
v 0.750000 0.187500 -0.050000
v 0.750000 0.250000 -0.050000
v 0.750000 0.250000 0.050000
v 0.750000 0.187500 0.050000
v 0.125000 0.500000 -0.050000
v 0.125000 0.500000 0.050000
v 0.562500 0.875000 -0.050000
v 0.500000 0.875000 -0.050000
v 0.500000 0.875000 0.050000
v 0.562500 0.875000 0.050000
v 0.312500 0.125000 -0.050000
v 0.375000 0.125000 -0.050000
v 0.375000 0.125000 0.050000
v 0.312500 0.125000 0.050000
v 0.187500 0.250000 -0.050000
v 0.250000 0.250000 -0.050000
v 0.250000 0.250000 0.050000
v 0.187500 0.250000 0.050000
v 0.500000 0.812500 -0.050000
v 0.562500 0.812500 -0.050000
v 0.437500 0.750000 -0.050000
v 0.375000 0.750000 -0.050000
v 0.375000 0.750000 0.050000
v 0.437500 0.750000 0.050000
v 0.500000 0.187500 -0.050000
v 0.500000 0.125000 -0.050000
v 0.500000 0.125000 0.050000
v 0.500000 0.187500 0.050000
v 0.562500 0.812500 0.050000
v 0.312500 0.187500 -0.050000
v 0.312500 0.187500 0.050000
v 0.250000 0.187500 -0.050000
v 0.250000 0.187500 0.050000
v 0.625000 0.125000 -0.050000
v 0.687500 0.125000 -0.050000
v 0.687500 0.125000 0.050000
v 0.625000 0.125000 0.050000
v 0.125000 0.750000 -0.050000
v 0.125000 0.750000 0.050000
v 0.500000 0.812500 0.050000
v 0.437500 0.812500 -0.050000
v 0.437500 0.812500 0.050000
v 0.812500 0.250000 -0.050000
v 0.812500 0.250000 0.050000
v 0.312500 0.812500 -0.050000
v 0.250000 0.812500 -0.050000
v 0.250000 0.812500 0.050000
v 0.312500 0.812500 0.050000
v 0.562500 0.125000 -0.050000
v 0.562500 0.125000 0.050000
v 0.625000 0.812500 -0.050000
v 0.625000 0.812500 0.050000
v 0.875000 0.625000 -0.050000
v 0.875000 0.687500 -0.050000
v 0.875000 0.687500 0.050000
v 0.875000 0.625000 0.050000
v 0.812500 0.687500 -0.050000
v 0.812500 0.687500 0.050000
v 0.125000 0.437500 -0.050000
v 0.125000 0.437500 0.050000
v 0.125000 0.375000 -0.050000
v 0.125000 0.375000 0.050000
v 0.812500 0.375000 -0.050000
v 0.875000 0.375000 -0.050000
v 0.875000 0.375000 0.050000
v 0.812500 0.375000 0.050000
v 0.375000 0.812500 -0.050000
v 0.375000 0.812500 0.050000
v 0.812500 0.750000 -0.050000
v 0.812500 0.750000 0.050000
v 0.812500 0.312500 -0.050000
v 0.812500 0.312500 0.050000
v 0.687500 0.812500 -0.050000
v 0.687500 0.812500 0.050000
v 0.687500 0.187500 -0.050000
v 0.687500 0.187500 0.050000
v 0.875000 0.437500 -0.050000
v 0.875000 0.500000 -0.050000
v 0.875000 0.500000 0.050000
v 0.875000 0.437500 0.050000
v 0.750000 0.812500 -0.050000
v 0.750000 0.812500 0.050000
v 0.437500 0.125000 -0.050000
v 0.437500 0.187500 -0.050000
v 0.437500 0.187500 0.050000
v 0.437500 0.125000 0.050000
v 0.875000 0.562500 -0.050000
v 0.875000 0.562500 0.050000
v 0.750000 0.750000 -0.050000
v 0.750000 0.750000 0.050000
v 0.187500 0.375000 -0.050000
v 0.187500 0.312500 -0.050000
v 0.187500 0.312500 0.050000
v 0.187500 0.375000 0.050000
v 0.187500 0.812500 -0.050000
v 0.187500 0.750000 -0.050000
v 0.187500 0.750000 0.050000
v 0.187500 0.812500 0.050000
vt 0.575144 0.723188
vt 0.512796 0.723188
vt 0.160749 0.666646
vt 0.160749 0.610104
vt 0.160749 0.553563
vt 0.726167 0.214312
vt 0.726167 0.270854
vt 0.160749 0.497021
vt 0.554940 0.866589
vt 0.515960 0.863925
vt 0.515569 0.863925
vt 0.330375 0.157770
vt 0.386916 0.157770
vt 0.217291 0.270854
vt 0.273833 0.270854
vt 0.500000 0.812500
vt 0.500000 0.875000
vt 0.562500 0.875000
vt 0.562500 0.812500
vt 0.430662 0.723188
vt 0.367074 0.723188
vt 0.522323 0.214312
vt 0.522323 0.157770
vt 0.554940 0.812500
vt 0.330375 0.214312
vt 0.273833 0.214312
vt 0.613084 0.157770
vt 0.669625 0.157770
vt 0.575144 0.779730
vt 0.160749 0.723188
vt 0.471150 0.724512
vt 0.469868 0.794272
vt 0.475270 0.791034
vt 0.476552 0.721273
vt 0.445028 0.799923
vt 0.442075 0.755677
vt 0.782709 0.270854
vt 0.330375 0.779730
vt 0.273833 0.779730
vt 0.556542 0.157770
vt 0.500203 0.812717
vt 0.613084 0.779730
vt 0.839251 0.610104
vt 0.839251 0.666646
vt 0.782709 0.666646
vt 0.160749 0.440479
vt 0.160749 0.383937
vt 0.782709 0.383937
vt 0.839251 0.383937
vt 0.367074 0.779730
vt 0.782709 0.723188
vt 0.782709 0.327396
vt 0.669625 0.779730
vt 0.669625 0.214312
vt 0.839251 0.440479
vt 0.839251 0.497021
vt 0.726167 0.779730
vt 0.427336 0.157770
vt 0.427336 0.214312
vt 0.839251 0.553563
vt 0.485336 0.758138
vt 0.726167 0.723188
vt 0.217291 0.383937
vt 0.217291 0.327396
vt 0.217291 0.779730
vt 0.217291 0.723188
vt 0.812500 0.375000
vt 0.875000 0.375000
vt 0.875000 0.437500
vt 0.875000 0.500000
vt 0.875000 0.562500
vt 0.875000 0.625000
vt 0.875000 0.687500
vt 0.812500 0.687500
vt 0.812500 0.750000
vt 0.750000 0.750000
vt 0.750000 0.812500
vt 0.687500 0.812500
vt 0.625000 0.812500
vt 0.562500 0.750000
vt 0.500000 0.750000
vt 0.437500 0.812500
vt 0.437500 0.750000
vt 0.375000 0.750000
vt 0.375000 0.812500
vt 0.312500 0.812500
vt 0.250000 0.812500
vt 0.187500 0.812500
vt 0.187500 0.750000
vt 0.125000 0.750000
vt 0.125000 0.687500
vt 0.125000 0.625000
vt 0.125000 0.562500
vt 0.125000 0.500000
vt 0.125000 0.437500
vt 0.125000 0.375000
vt 0.187500 0.375000
vt 0.187500 0.312500
vt 0.187500 0.250000
vt 0.250000 0.250000
vt 0.250000 0.187500
vt 0.312500 0.187500
vt 0.312500 0.125000
vt 0.375000 0.125000
vt 0.437500 0.125000
vt 0.437500 0.187500
vt 0.500000 0.187500
vt 0.500000 0.125000
vt 0.562500 0.125000
vt 0.625000 0.125000
vt 0.687500 0.125000
vt 0.687500 0.187500
vt 0.750000 0.187500
vt 0.750000 0.250000
vt 0.812500 0.250000
vt 0.812500 0.312500
vn 0.000000 1.000000 0.000000
vn -1.000000 0.000000 0.000000
vn 1.000000 0.000000 0.000000
vn 0.000000 -1.000000 0.000000
vn 0.000000 0.000000 -1.000000
vn -0.000000 -0.000000 1.000000
g Apple_Plane.002_Apple_Plane.002_None
s 1
f 1/1/1 2/2/1 3/2/1 4/1/1
f 5/3/2 6/4/2 7/4/2 8/3/2
f 6/4/2 9/5/2 10/5/2 7/4/2
f 11/6/3 12/7/3 13/7/3 14/6/3
f 9/5/2 15/8/2 16/8/2 10/5/2
f 17/9/1 18/10/1 19/11/1 20/9/1
f 21/12/4 22/13/4 23/13/4 24/12/4
f 25/14/4 26/15/4 27/15/4 28/14/4
f 29/16/5 18/17/5 17/18/5 30/19/5
f 31/20/1 32/21/1 33/21/1 34/20/1
f 35/22/2 36/23/2 37/23/2 38/22/2
f 30/24/3 17/9/3 20/9/3 39/24/3
f 40/25/2 21/12/2 24/12/2 41/25/2
f 42/26/4 40/25/4 41/25/4 43/26/4
f 44/27/4 45/28/4 46/28/4 47/27/4
f 30/29/2 1/1/2 4/1/2 39/29/2
f 48/30/2 5/3/2 8/3/2 49/30/2
f 29/31/4 30/32/4 39/33/4 50/34/4
f 51/35/2 31/36/2 34/36/2 52/35/2
f 12/7/4 53/37/4 54/37/4 13/7/4
f 55/38/1 56/39/1 57/39/1 58/38/1
f 36/23/4 59/40/4 60/40/4 37/23/4
f 18/10/2 29/41/2 50/41/2 19/11/2
f 26/15/2 42/26/2 43/26/2 27/15/2
f 61/42/1 30/29/1 39/29/1 62/42/1
f 63/43/3 64/44/3 65/44/3 66/43/3
f 64/44/1 67/45/1 68/45/1 65/44/1
f 15/8/2 69/46/2 70/46/2 16/8/2
f 69/46/2 71/47/2 72/47/2 70/46/2
f 73/48/4 74/49/4 75/49/4 76/48/4
f 32/21/3 77/50/3 78/50/3 33/21/3
f 67/45/3 79/51/3 80/51/3 68/45/3
f 81/52/3 73/48/3 76/48/3 82/52/3
f 83/53/1 61/42/1 62/42/1 84/53/1
f 45/28/3 85/54/3 86/54/3 46/28/3
f 87/55/3 88/56/3 89/56/3 90/55/3
f 91/57/1 83/53/1 84/53/1 92/57/1
f 93/58/3 94/59/3 95/59/3 96/58/3
f 97/60/3 63/43/3 66/43/3 98/60/3
f 88/56/3 97/60/3 98/60/3 89/56/3
f 2/61/3 29/41/3 50/41/3 3/61/3
f 79/51/1 99/62/1 100/62/1 80/51/1
f 99/62/3 91/57/3 92/57/3 100/62/3
f 101/63/2 102/64/2 103/64/2 104/63/2
f 105/65/2 106/66/2 107/66/2 108/65/2
f 22/13/4 93/58/4 96/58/4 23/13/4
f 74/49/3 87/55/3 90/55/3 75/49/3
f 29/41/1 51/35/1 52/35/1 50/41/1
f 106/66/1 48/30/1 49/30/1 107/66/1
f 53/37/3 81/52/3 82/52/3 54/37/3
f 56/39/1 105/65/1 108/65/1 57/39/1
f 94/59/4 35/22/4 38/22/4 95/59/4
f 76/67/6 75/68/6 90/69/6 89/70/6 98/71/6 66/72/6 65/73/6 68/74/6 80/75/6 100/76/6 92/77/6 84/78/6 62/79/6 39/19/6 4/80/6 3/81/6 50/16/6 52/82/6 34/83/6 33/84/6 78/85/6 58/86/6 57/87/6 108/88/6 107/89/6 49/90/6 8/91/6 7/92/6 10/93/6 16/94/6 70/95/6 72/96/6 104/97/6 103/98/6 28/99/6 27/100/6 43/101/6 41/102/6 24/103/6 23/104/6 96/105/6 95/106/6 38/107/6 37/108/6 60/109/6 47/110/6 46/111/6 86/112/6 14/113/6 13/114/6 54/115/6 82/116/6
f 77/50/1 55/38/1 58/38/1 78/50/1
f 85/54/4 11/6/4 14/6/4 86/54/4
f 71/47/4 101/63/4 104/63/4 72/47/4
f 59/40/4 44/27/4 47/27/4 60/40/4
f 102/64/2 25/14/2 28/14/2 103/64/2
f 50/16/6 39/19/6 20/18/6 19/17/6
f 73/67/5 81/116/5 53/115/5 12/114/5 11/113/5 85/112/5 45/111/5 44/110/5 59/109/5 36/108/5 35/107/5 94/106/5 93/105/5 22/104/5 21/103/5 40/102/5 42/101/5 26/100/5 25/99/5 102/98/5 101/97/5 71/96/5 69/95/5 15/94/5 9/93/5 6/92/5 5/91/5 48/90/5 106/89/5 105/88/5 56/87/5 55/86/5 77/85/5 32/84/5 31/83/5 51/82/5 29/16/5 2/81/5 1/80/5 30/19/5 61/79/5 83/78/5 91/77/5 99/76/5 79/75/5 67/74/5 64/73/5 63/72/5 97/71/5 88/70/5 87/69/5 74/68/5
