# Blender v2.75 (sub 0) OBJ File: ''
# www.blender.org
mtllib peach-orange.mtl
o Plane.001
v 0.687500 0.125000 -0.050000
v 0.625000 0.125000 -0.050000
v 0.562500 0.125000 -0.050000
v 0.500000 0.125000 -0.050000
v 0.437500 0.125000 -0.050000
v 0.375000 0.125000 -0.050000
v 0.312500 0.125000 -0.050000
v 0.750000 0.187500 -0.050000
v 0.687500 0.187500 -0.050000
v 0.500000 0.187500 -0.050000
v 0.437500 0.187500 -0.050000
v 0.312500 0.187500 -0.050000
v 0.250000 0.187500 -0.050000
v 0.812500 0.250000 -0.050000
v 0.750000 0.250000 -0.050000
v 0.250000 0.250000 -0.050000
v 0.187500 0.250000 -0.050000
v 0.812500 0.312500 -0.050000
v 0.187500 0.312500 -0.050000
v 0.875000 0.375000 -0.050000
v 0.812500 0.375000 -0.050000
v 0.187500 0.375000 -0.050000
v 0.125000 0.375000 -0.050000
v 0.875000 0.437500 -0.050000
v 0.125000 0.437500 -0.050000
v 0.875000 0.500000 -0.050000
v 0.125000 0.500000 -0.050000
v 0.875000 0.562500 -0.050000
v 0.125000 0.562500 -0.050000
v 0.875000 0.625000 -0.050000
v 0.812500 0.625000 -0.050000
v 0.187500 0.625000 -0.050000
v 0.125000 0.625000 -0.050000
v 0.812500 0.687500 -0.050000
v 0.750000 0.687500 -0.050000
v 0.250000 0.687500 -0.050000
v 0.187500 0.687500 -0.050000
v 0.750000 0.750000 -0.050000
v 0.562500 0.750000 -0.050000
v 0.500000 0.750000 -0.050000
v 0.437500 0.750000 -0.050000
v 0.375000 0.750000 -0.050000
v 0.312500 0.750000 -0.050000
v 0.250000 0.750000 -0.050000
v 0.812500 0.812500 -0.050000
v 0.750000 0.812500 -0.050000
v 0.562500 0.812500 -0.050000
v 0.500000 0.812500 -0.050000
v 0.437500 0.812500 -0.050000
v 0.812500 0.875000 -0.050000
v 0.750000 0.875000 -0.050000
v 0.687500 0.875000 -0.050000
v 0.562500 0.875000 -0.050000
v 0.500000 0.875000 -0.050000
v 0.437500 0.875000 -0.050000
v 0.562500 0.937500 -0.050000
v 0.625000 0.937500 -0.050000
v 0.687500 0.937500 -0.050000
v 0.375000 0.125000 0.050000
v 0.437500 0.125000 0.050000
v 0.500000 0.125000 0.050000
v 0.687500 0.250000 -0.050000
v 0.625000 0.250000 -0.050000
v 0.562500 0.250000 -0.050000
v 0.500000 0.250000 -0.050000
v 0.437500 0.250000 -0.050000
v 0.375000 0.250000 -0.050000
v 0.312500 0.250000 -0.050000
v 0.812500 0.437500 -0.050000
v 0.187500 0.437500 -0.050000
v 0.812500 0.500000 -0.050000
v 0.187500 0.500000 -0.050000
v 0.812500 0.562500 -0.050000
v 0.187500 0.562500 -0.050000
v 0.687500 0.687500 -0.050000
v 0.625000 0.687500 -0.050000
v 0.562500 0.687500 -0.050000
v 0.500000 0.687500 -0.050000
v 0.437500 0.687500 -0.050000
v 0.375000 0.687500 -0.050000
v 0.312500 0.687500 -0.050000
v 0.687500 0.750000 -0.050000
v 0.625000 0.750000 -0.050000
v 0.687500 0.125000 0.050000
v 0.625000 0.125000 0.050000
v 0.562500 0.125000 0.050000
v 0.312500 0.125000 0.050000
v 0.750000 0.187500 0.050000
v 0.687500 0.187500 0.050000
v 0.500000 0.187500 0.050000
v 0.437500 0.187500 0.050000
v 0.312500 0.187500 0.050000
v 0.250000 0.187500 0.050000
v 0.812500 0.250000 0.050000
v 0.750000 0.250000 0.050000
v 0.250000 0.250000 0.050000
v 0.187500 0.250000 0.050000
v 0.875000 0.375000 0.050000
v 0.812500 0.375000 0.050000
v 0.187500 0.375000 0.050000
v 0.125000 0.375000 0.050000
v 0.875000 0.625000 0.050000
v 0.812500 0.625000 0.050000
v 0.187500 0.625000 0.050000
v 0.125000 0.625000 0.050000
v 0.812500 0.687500 0.050000
v 0.750000 0.687500 0.050000
v 0.250000 0.687500 0.050000
v 0.187500 0.687500 0.050000
v 0.562500 0.750000 0.050000
v 0.500000 0.750000 0.050000
v 0.437500 0.750000 0.050000
v 0.375000 0.750000 0.050000
v 0.312500 0.750000 0.050000
v 0.250000 0.750000 0.050000
v 0.812500 0.812500 0.050000
v 0.750000 0.812500 0.050000
v 0.562500 0.812500 0.050000
v 0.500000 0.812500 0.050000
v 0.812500 0.875000 0.050000
v 0.750000 0.875000 0.050000
v 0.687500 0.875000 0.050000
v 0.562500 0.875000 0.050000
v 0.500000 0.875000 0.050000
v 0.437500 0.875000 0.050000
v 0.437500 0.812500 0.050000
v 0.750000 0.750000 0.050000
v 0.125000 0.562500 0.050000
v 0.875000 0.562500 0.050000
v 0.125000 0.500000 0.050000
v 0.875000 0.500000 0.050000
v 0.125000 0.437500 0.050000
v 0.875000 0.437500 0.050000
v 0.187500 0.312500 0.050000
v 0.812500 0.312500 0.050000
v 0.562500 0.937500 0.050000
v 0.687500 0.937500 0.050000
v 0.625000 0.937500 0.050000
v 0.812500 0.437500 0.050000
v 0.187500 0.437500 0.050000
v 0.812500 0.562500 0.050000
v 0.187500 0.562500 0.050000
v 0.625000 0.750000 0.050000
v 0.687500 0.750000 0.050000
v 0.312500 0.687500 0.050000
v 0.687500 0.687500 0.050000
v 0.312500 0.250000 0.050000
v 0.687500 0.250000 0.050000
v 0.625000 0.250000 0.050000
v 0.562500 0.250000 0.050000
v 0.500000 0.250000 0.050000
v 0.437500 0.250000 0.050000
v 0.375000 0.250000 0.050000
v 0.625000 0.687500 0.050000
v 0.562500 0.687500 0.050000
v 0.500000 0.687500 0.050000
v 0.437500 0.687500 0.050000
v 0.375000 0.687500 0.050000
v 0.187500 0.500000 0.050000
v 0.812500 0.500000 0.050000
vt 0.187500 0.625000
vt 0.187500 0.562500
vt 0.187500 0.500000
vt 0.187500 0.437500
vt 0.187500 0.375000
vt 0.187500 0.312500
vt 0.187500 0.250000
vt 0.250000 0.250000
vt 0.312500 0.250000
vt 0.375000 0.250000
vt 0.437500 0.250000
vt 0.500000 0.250000
vt 0.562500 0.250000
vt 0.625000 0.250000
vt 0.687500 0.250000
vt 0.750000 0.250000
vt 0.812500 0.250000
vt 0.812500 0.312500
vt 0.812500 0.375000
vt 0.812500 0.437500
vt 0.812500 0.500000
vt 0.812500 0.562500
vt 0.812500 0.625000
vt 0.812500 0.687500
vt 0.750000 0.687500
vt 0.687500 0.687500
vt 0.625000 0.687500
vt 0.562500 0.687500
vt 0.500000 0.687500
vt 0.437500 0.687500
vt 0.375000 0.687500
vt 0.312500 0.687500
vt 0.250000 0.687500
vt 0.187500 0.687500
vt 0.125000 0.375000
vt 0.125000 0.437500
vt 0.125000 0.500000
vt 0.125000 0.562500
vt 0.125000 0.625000
vt 0.687500 0.187500
vt 0.687500 0.125000
vt 0.625000 0.125000
vt 0.562500 0.125000
vt 0.500000 0.125000
vt 0.500000 0.187500
vt 0.437500 0.187500
vt 0.437500 0.125000
vt 0.375000 0.125000
vt 0.312500 0.125000
vt 0.312500 0.187500
vt 0.250000 0.187500
vt 0.750000 0.187500
vt 0.562500 0.937500
vt 0.625000 0.937500
vt 0.687500 0.937500
vt 0.687500 0.750000
vt 0.625000 0.750000
vt 0.562500 0.750000
vt 0.500000 0.750000
vt 0.437500 0.750000
vt 0.375000 0.750000
vt 0.312500 0.750000
vt 0.250000 0.750000
vt 0.750000 0.750000
vt 0.750000 0.812500
vt 0.875000 0.375000
vt 0.875000 0.437500
vt 0.875000 0.500000
vt 0.875000 0.562500
vt 0.875000 0.625000
vt 0.687500 0.875000
vt 0.437500 0.812500
vt 0.562500 0.875000
vt 0.812500 0.875000
vt 0.812500 0.812500
vt 0.500000 0.875000
vt 0.437500 0.875000
vt 0.500000 0.812500
vt 0.562500 0.812500
vt 0.750000 0.875000
vn -0.000000 0.000000 1.000000
vn 0.000000 -0.000000 -1.000000
vn 0.000000 1.000000 0.000000
vn 0.000000 -1.000000 0.000000
vn 1.000000 -0.000000 0.000000
vn -1.000000 0.000000 0.000000
usemtl None
s off
f 32/1/1 74/2/1 72/3/1 70/4/1 22/5/1 19/6/1 17/7/1 16/8/1 68/9/1 67/10/1 66/11/1 65/12/1 64/13/1 63/14/1 62/15/1 15/16/1 14/17/1 18/18/1 21/19/1 69/20/1 71/21/1 73/22/1 31/23/1 34/24/1 35/25/1 75/26/1 76/27/1 77/28/1 78/29/1 79/30/1 80/31/1 81/32/1 36/33/1 37/34/1
f 101/35/2 132/36/2 130/37/2 128/38/2 105/39/2 104/1/2 142/2/2 159/3/2 140/4/2 100/5/2
f 89/40/2 84/41/2 85/42/2 86/43/2 61/44/2 90/45/2 91/46/2 60/47/2 59/48/2 87/49/2 92/50/2 93/51/2 96/8/2 147/9/2 153/10/2 152/11/2 151/12/2 150/13/2 149/14/2 148/15/2 95/16/2 88/52/2
f 6/48/3 7/49/3 87/49/3 59/48/3
f 56/53/4 57/54/4 138/54/4 136/53/4
f 57/54/4 58/55/4 137/55/4 138/54/4
f 82/56/1 83/57/1 39/58/1 40/59/1 41/60/1 42/61/1 43/62/1 44/63/1 36/33/1 81/32/1 80/31/1 79/30/1 78/29/1 77/28/1 76/27/1 75/26/1 35/25/1 38/64/1
f 5/47/3 6/48/3 59/48/3 60/47/3
f 12/50/3 13/51/3 93/51/3 92/50/3
f 32/1/5 37/34/5 109/34/5 104/1/5
f 10/45/3 11/46/3 91/46/3 90/45/3
f 38/64/6 35/25/6 107/25/6 127/64/6
f 36/33/5 44/63/5 115/63/5 108/33/5
f 46/65/6 38/64/6 127/64/6 117/65/6
f 8/52/3 9/40/3 89/40/3 88/52/3
f 21/19/1 20/66/1 24/67/1 26/68/1 28/69/1 30/70/1 31/23/1 73/22/1 71/21/1 69/20/1
f 58/55/6 52/71/6 122/71/6 137/55/6
f 3/43/3 4/44/3 61/44/3 86/43/3
f 41/60/5 49/72/5 126/72/5 112/60/5
f 53/73/5 56/53/5 136/53/5 123/73/5
f 2/42/3 3/43/3 86/43/3 85/42/3
f 50/74/6 45/75/6 116/75/6 120/74/6
f 53/73/1 54/76/1 55/77/1 49/72/1 41/60/1 40/59/1 48/78/1 47/79/1 39/58/1 83/57/1 82/56/1 38/64/1 46/65/1 45/75/1 50/74/1 51/80/1 52/71/1 58/55/1 57/54/1 56/53/1
f 104/1/2 109/34/2 108/33/2 145/32/2 158/31/2 157/30/2 156/29/2 155/28/2 154/27/2 146/26/2 107/25/2 106/24/2 103/23/2 141/22/2 160/21/2 139/20/2 99/19/2 135/18/2 94/17/2 95/16/2 148/15/2 149/14/2 150/13/2 151/12/2 152/11/2 153/10/2 147/9/2 96/8/2 97/7/2 134/6/2 100/5/2 140/4/2 159/3/2 142/2/2
f 99/19/2 139/20/2 160/21/2 141/22/2 103/23/2 102/70/2 129/69/2 131/68/2 133/67/2 98/66/2
f 11/46/6 5/47/6 60/47/6 91/46/6
f 55/77/4 54/76/4 124/76/4 125/77/4
f 4/44/5 10/45/5 90/45/5 61/44/5
f 123/73/2 136/53/2 138/54/2 137/55/2 122/71/2 121/80/2 120/74/2 116/75/2 117/65/2 127/64/2 144/56/2 143/57/2 110/58/2 118/79/2 119/78/2 111/59/2 112/60/2 126/72/2 125/77/2 124/76/2
f 1/41/3 2/42/3 85/42/3 84/41/3
f 9/40/6 1/41/6 84/41/6 89/40/6
f 49/72/5 55/77/5 125/77/5 126/72/5
f 144/56/2 127/64/2 107/25/2 146/26/2 154/27/2 155/28/2 156/29/2 157/30/2 158/31/2 145/32/2 108/33/2 115/63/2 114/62/2 113/61/2 112/60/2 111/59/2 110/58/2 143/57/2
f 48/78/6 40/59/6 111/59/6 119/78/6
f 39/58/5 47/79/5 118/79/5 110/58/5
f 23/35/1 22/5/1 70/4/1 72/3/1 74/2/1 32/1/1 33/39/1 29/38/1 27/37/1 25/36/1
f 9/40/1 8/52/1 15/16/1 62/15/1 63/14/1 64/13/1 65/12/1 66/11/1 67/10/1 68/9/1 16/8/1 13/51/1 12/50/1 7/49/1 6/48/1 5/47/1 11/46/1 10/45/1 4/44/1 3/43/1 2/42/1 1/41/1
f 14/17/3 15/16/3 95/16/3 94/17/3
f 34/24/6 31/23/6 103/23/6 106/24/6
f 16/8/3 17/7/3 97/7/3 96/8/3
f 29/38/5 33/39/5 105/39/5 128/38/5
f 20/66/3 21/19/3 99/19/3 98/66/3
f 30/70/6 28/69/6 129/69/6 102/70/6
f 22/5/3 23/35/3 101/35/3 100/5/3
f 27/37/5 29/38/5 128/38/5 130/37/5
f 31/23/4 30/70/4 102/70/4 103/23/4
f 28/69/6 26/68/6 131/68/6 129/69/6
f 33/39/4 32/1/4 104/1/4 105/39/4
f 25/36/5 27/37/5 130/37/5 132/36/5
f 35/25/4 34/24/4 106/24/4 107/25/4
f 26/68/6 24/67/6 133/67/6 131/68/6
f 37/34/4 36/33/4 108/33/4 109/34/4
f 23/35/5 25/36/5 132/36/5 101/35/5
f 40/59/4 39/58/4 110/58/4 111/59/4
f 24/67/6 20/66/6 98/66/6 133/67/6
f 42/61/4 41/60/4 112/60/4 113/61/4
f 19/6/5 22/5/5 100/5/5 134/6/5
f 43/62/4 42/61/4 113/61/4 114/62/4
f 21/19/6 18/18/6 135/18/6 99/19/6
f 44/63/4 43/62/4 114/62/4 115/63/4
f 17/7/5 19/6/5 134/6/5 97/7/5
f 45/75/3 46/65/3 117/65/3 116/75/3
f 18/18/6 14/17/6 94/17/6 135/18/6
f 47/79/3 48/78/3 119/78/3 118/79/3
f 13/51/5 16/8/5 96/8/5 93/51/5
f 51/80/4 50/74/4 120/74/4 121/80/4
f 15/16/6 8/52/6 88/52/6 95/16/6
f 52/71/4 51/80/4 121/80/4 122/71/4
f 7/49/5 12/50/5 92/50/5 87/49/5
f 54/76/4 53/73/4 123/73/4 124/76/4
o Plane
v -0.500000 -0.500000 0.121855
v 0.500000 -0.500000 0.121855
v -0.500000 0.500000 0.121855
v 0.500000 0.500000 0.121855
vt 0.000100 0.000100
vt 0.999900 0.000100
vt 0.999900 0.999900
vt 0.000100 0.999900
vn 0.000000 0.000000 1.000000
usemtl None
s off
f 161/81/7 162/82/7 164/83/7 163/84/7
o Cube
v 0.500000 -0.500000 -0.500000
v 0.500000 -0.500000 0.500000
v -0.500000 -0.500000 0.500000
v -0.500000 -0.500000 -0.500000
v 0.500000 0.500000 -0.500000
v 0.500000 0.500000 0.500000
v -0.500000 0.500000 0.500000
v -0.500000 0.500000 -0.500000
vn 0.000000 -1.000000 0.000000
vn 0.000000 1.000000 0.000000
vn 1.000000 0.000000 0.000000
vn -0.000000 -0.000000 1.000000
vn -1.000000 -0.000000 -0.000000
vn 0.000000 0.000000 -1.000000
usemtl Material
s off
f 165//8 166//8 167//8 168//8
f 169//9 172//9 171//9 170//9
f 165//10 169//10 170//10 166//10
f 166//11 170//11 171//11 167//11
f 167//12 171//12 172//12 168//12
f 169//13 165//13 168//13 172//13
