# Blender v2.78 (sub 0) OBJ File: 'stop_reading_please.blend'
# www.blender.org
# made for Minetest by AspireMint
g Plane.001
v -2.346000 17.055759 2.345999
v 2.346000 17.055759 2.345999
v -2.346000 17.055759 -2.346000
v 2.346000 17.055759 -2.346000
v -0.293250 22.135761 0.293250
v 0.293250 22.135761 0.293250
v -0.293250 22.135761 -0.293250
v 0.293250 22.135761 -0.293250
v -1.759500 17.055759 1.759500
v 1.759500 17.055759 1.759500
v -1.759500 17.055759 -1.759500
v 1.759500 17.055759 -1.759500
v -2.346000 16.712000 2.345999
v 2.346000 16.712000 2.345999
v -2.346000 16.712000 -2.346000
v 2.346000 16.712000 -2.346000
v -3.150000 12.610003 -1.050000
v 3.150000 12.610001 -1.050000
v -3.150003 0.439336 -4.311120
v 3.149998 0.439336 -4.311120
v -3.150000 12.610003 1.049999
v 3.150000 12.610001 1.050000
v -3.150003 0.439337 4.311119
v 3.149998 0.439337 4.311119
vt -0.0000 0.0000
vt 1.0000 0.4615
vt 1.0000 0.0000
vt 0.0000 0.5385
vt 1.0000 0.5385
vt 0.0000 1.0000
vt 0.0000 0.4615
vt 1.0000 1.0000
vt 0.0000 1.0000
vt 0.1250 0.1250
vt 0.1250 0.8750
vt 0.4375 0.5625
vt 0.5625 0.4375
vt 0.5625 0.5625
vt 0.8750 0.1250
vt 0.0000 0.0000
vt 1.0000 0.0000
vt 0.4375 0.4375
vt 0.8750 0.8750
vt 1.0000 0.0000
vt 1.0000 1.0000
vt 0.0000 1.0000
vt 0.0000 0.0000
vt 1.0000 1.0000
vn 0.0000 -0.2588 -0.9659
vn -0.0000 -1.0000 0.0000
vn -0.0000 -0.2588 0.9659
vn 0.0000 1.0000 0.0000
vn 0.9608 0.2773 0.0000
vn 0.0000 0.2773 -0.9608
vn -0.9608 0.2773 0.0000
vn 0.0000 0.2773 0.9608
vn 0.0000 0.0000 -1.0000
vn 0.0000 0.0000 1.0000
vn 1.0000 0.0000 0.0000
vn -1.0000 0.0000 0.0000
g Plane.001_Plane.001_None
s off
f 23/1/1 22/2/1 24/3/1
f 22/2/2 17/4/2 18/5/2
f 19/6/3 18/5/3 17/4/3
f 23/1/1 21/7/1 22/2/1
f 22/2/2 21/7/2 17/4/2
f 19/6/3 20/8/3 18/5/3
g Plane.001_Plane.001_None_afk_cone.png
f 2/9/4 12/10/4 10/11/4
f 6/12/4 7/13/4 5/14/4
f 11/15/4 4/16/4 3/17/4
f 10/11/5 8/18/5 6/12/5
f 12/10/6 7/13/6 8/18/6
f 7/13/7 9/19/7 5/14/7
f 9/19/8 6/12/8 5/14/8
f 4/16/9 15/20/9 3/17/9
f 1/21/10 14/22/10 2/9/10
f 2/9/11 16/23/11 4/16/11
f 3/17/12 13/24/12 1/21/12
f 9/19/4 1/21/4 2/9/4
f 2/9/4 4/16/4 12/10/4
f 10/11/4 9/19/4 2/9/4
f 6/12/4 8/18/4 7/13/4
f 1/21/4 9/19/4 11/15/4
f 11/15/4 12/10/4 4/16/4
f 3/17/4 1/21/4 11/15/4
f 10/11/5 12/10/5 8/18/5
f 12/10/6 11/15/6 7/13/6
f 7/13/7 11/15/7 9/19/7
f 9/19/8 10/11/8 6/12/8
f 4/16/9 16/23/9 15/20/9
f 1/21/10 13/24/10 14/22/10
f 2/9/11 14/22/11 16/23/11
f 3/17/12 15/20/12 13/24/12
